<svg width="102" height="51" viewBox="0 0 102 51" fill="none" xmlns="http://www.w3.org/2000/svg">
<path d="M77.2068 3.05916C77.8858 3.19702 78.539 3.25698 78.6474 4.22817C78.7026 4.72283 79.37 4.77343 79.8626 4.78678C80.7464 4.81089 80.9775 4.95373 80.9249 5.74164C80.8824 6.37794 81.088 6.56621 81.6829 6.6186C82.4662 6.68753 83.2001 6.91085 84.0245 6.5939C84.7664 6.30881 85.1907 6.68514 85.543 7.57864C85.6177 7.76789 85.7246 8.0203 85.9458 7.88384C86.9538 7.26188 88.1575 7.74638 89.2375 7.19753C89.9549 6.83296 90.9771 6.99811 91.6968 7.6898C92.0449 8.02429 92.4578 8.18506 92.8897 7.89101C93.3477 7.57923 93.7271 7.86611 93.9627 8.10856C94.7114 8.87854 95.5567 8.64964 96.4157 8.48588C96.5307 8.46396 96.642 8.42252 96.755 8.39025C97.2216 8.25657 96.7843 9.32738 97.3072 8.87097C97.5843 8.62912 97.7782 8.57852 98.0916 8.54046C99.5194 8.36694 100.572 9.17677 101.667 9.89455L101.143 11.1247C101.106 11.1151 101.067 11.1063 101.029 11.0982C100.719 11.0335 100.435 10.49 100.342 10.6386C100.148 10.9454 99.7584 11.2078 99.809 11.6369C99.874 12.1876 99.6016 12.3177 99.1139 12.341C98.6796 12.3617 98.236 12.4386 97.8997 12.7818C97.6258 13.0617 97.3012 13.0673 96.9128 13.0524C95.9091 13.0137 95.3688 13.4903 95.2433 14.5077C95.1144 15.5512 94.1401 15.9257 93.6247 16.6606C93.4581 16.8981 93.3087 16.5903 93.2193 16.4319C92.8103 15.7072 93.0637 15.0334 93.4284 14.3975C93.6049 14.0899 93.8886 13.8453 94.1125 13.563C94.2484 13.3918 94.6018 13.2819 94.4409 13.0157C94.2984 12.7802 93.9711 12.7163 93.6874 12.7237C93.333 12.733 93.0932 12.9761 92.9298 13.252C92.6451 13.7329 92.3096 13.6622 91.8164 13.5737C90.5304 13.3432 89.199 13.2084 88.3033 14.4989C88.0663 14.8406 87.3325 14.8904 87.5563 15.4452C87.7668 15.9673 88.4153 15.6219 88.8546 15.7572C89.1791 15.857 89.6166 15.745 89.6311 16.1819C89.6467 16.6528 90.126 17.18 89.5913 17.5995C89.4253 17.7298 89.2755 17.8091 89.253 18.0308C89.2417 18.1426 89.2454 18.3117 89.1088 18.3113C88.9795 18.3109 88.9936 18.144 88.9803 18.0366C88.9705 17.9573 88.9773 17.8763 88.9681 17.7968C88.9426 17.5738 89.0408 17.332 88.8677 17.1314C88.8074 17.3571 88.7866 17.6041 88.6797 17.8051C88.1703 18.7648 87.6272 19.6712 86.4365 19.9601C85.3455 20.2246 85.2372 20.448 85.4995 21.5496C85.5952 21.9513 85.5973 22.2933 85.1666 22.4354C84.7503 22.5726 84.6206 22.186 84.4769 21.9182C84.3662 21.7118 84.304 21.4692 84.268 21.2355C84.2152 20.8932 84.0251 20.8623 83.7584 20.9604C83.5508 21.0367 83.3304 21.2952 83.141 20.9888C83.0103 20.7775 82.927 20.6376 82.7384 20.9028C82.6254 21.0616 82.4475 21.2572 82.4696 21.4118C82.5176 21.7481 82.767 21.4759 82.9292 21.4917C83.3928 21.5371 83.8297 21.5923 83.2205 22.1387C82.9442 22.3866 83.0268 22.7109 83.0902 23.0344C83.4137 24.6867 82.7055 25.9074 81.1372 26.4676C80.7454 26.6076 80.2559 26.5837 80.0868 27.1361C79.979 27.4882 79.818 27.4583 79.6614 27.1059C79.4722 26.6797 79.1889 26.9525 78.9765 27.1011C78.6882 27.3031 78.6835 27.5561 78.951 27.7985C79.0697 27.9061 79.1968 28.0053 79.3078 28.1203C80.065 28.9042 79.7985 30.0017 78.7681 30.4111C78.484 30.524 78.4404 30.33 78.3267 30.1686C78.0173 29.7298 77.4834 29.2118 77.0861 29.5712C76.5735 30.035 77.1156 30.5858 77.5234 30.9761C77.8234 31.2632 78.1767 31.6088 78.1005 31.9817C77.9262 32.8348 78.6819 33.3536 78.7299 34.1092C78.7516 34.4499 79.0797 34.5009 79.3528 34.5766C80.1539 34.7987 80.8998 35.2577 81.7851 35.1196C81.9373 35.0959 82.161 35.1571 82.1722 35.3208C82.1881 35.5531 81.9469 35.4862 81.8058 35.4989C80.796 35.5896 79.7622 35.4195 78.854 35.1292C78.1537 34.9055 77.5613 34.1 77.1062 33.4279C76.7285 32.868 76.3141 32.3336 75.8659 31.8283C75.7348 31.6807 75.4898 31.5875 75.6482 31.3642C75.8269 31.1123 76.0876 31.2114 76.2729 31.3745C76.5419 31.6114 76.7765 31.8871 77.0289 32.1431C77.1126 32.228 77.2323 32.3208 77.3335 32.2353C77.4523 32.1353 77.3252 32.0266 77.263 31.9397C76.6058 31.0201 76.3594 29.9999 76.4496 28.8757C76.4833 28.4566 76.4148 28.037 75.7928 28.1713C75.2577 28.2868 75.2718 27.7762 75.086 27.5133C74.306 26.4096 74.0164 26.3813 73.0145 27.276C72.7844 27.4814 72.5322 27.6621 72.2806 27.8406C71.4152 28.4548 71.1871 29.3646 71.6317 30.3746C71.7228 30.5816 71.9459 30.8107 71.6995 31.0203C71.4723 31.2135 71.2809 30.9691 71.0645 30.8952C70.0661 30.5539 69.6899 29.722 69.5527 28.8269C69.3481 27.4935 68.3444 26.7228 67.627 25.746C67.4429 25.4952 67.168 25.4422 66.8796 25.4372C66.5192 25.4308 66.1558 25.399 65.799 25.4338C65.5769 25.4555 65.3655 25.4233 65.1571 25.3776C64.8017 25.2999 64.5909 25.7565 64.8808 25.9763C65.019 26.0811 65.1691 26.1765 65.297 26.2901C65.5273 26.4945 65.2902 26.6184 65.2232 26.7917C64.8001 27.8884 63.7448 28.1707 62.8382 28.5872C62.2712 28.8476 61.7343 29.2413 61.0711 29.2803C60.948 29.2875 60.8255 29.3523 60.8255 29.4929C60.8255 29.6828 60.9757 29.7744 61.1355 29.7887C61.5417 29.8254 61.8995 29.6039 62.288 29.5419C62.829 29.4558 63.09 29.8228 62.8488 30.3147C62.3728 31.2855 61.7608 32.181 60.8843 32.8635C59.5419 33.9088 59.414 34.3357 59.9174 35.9014C60.3119 37.1284 60.2657 37.3134 59.1957 38.125C58.7875 38.4348 58.4377 38.7187 58.6407 39.305C58.7209 39.5369 58.7407 39.8539 58.5486 39.9863C57.781 40.5165 57.5298 41.3982 57.0479 42.1154C56.2731 43.2683 55.0858 43.2129 53.9435 43.2998C53.5855 43.327 53.3155 42.972 53.2793 42.6945C53.1486 41.6958 52.6533 40.7868 52.3101 39.9061C51.782 38.5508 51.3857 37.3824 51.9148 35.9534C52.0666 35.5432 51.8666 34.8656 51.5967 34.4672C51.1445 33.7996 50.9295 33.127 50.9504 32.3417C50.957 32.0915 50.8209 31.7799 50.5687 31.8166C49.881 31.9166 49.3232 31.2831 48.7471 31.4128C48.1006 31.5584 47.3928 31.4311 46.7987 31.8006C46.3997 32.0489 46.0466 31.9491 45.6833 31.7102C44.7709 31.1106 44.2539 30.1296 43.4578 29.418C43.3743 29.3433 43.3239 29.1967 43.3438 29.0865C43.6176 27.5708 43.094 25.8279 44.5242 24.6387C45.2195 24.0606 45.494 23.1747 46.163 22.5822C46.4439 22.3334 46.4568 21.9965 46.0299 21.8299C45.7452 21.7188 45.4484 21.5588 45.541 21.2514C45.6954 20.7392 45.3982 20.1993 45.6578 19.7306C45.8909 19.31 46.3435 19.3863 46.7399 19.4074C47.9215 19.4704 48.0295 19.3798 47.8195 18.1749C47.7306 17.6645 47.8522 17.4264 48.2883 17.1109C48.7941 16.7447 49.2774 16.319 49.7916 15.9558C50.6187 15.3713 50.7122 15.1442 50.1215 14.2564C49.9366 13.9787 49.8167 13.707 49.7438 13.3942C49.5409 12.5228 49.6776 12.1479 50.5002 11.7614C51.0741 11.4919 51.5044 11.1391 51.7569 10.5496C52.1953 9.5254 53.04 8.94488 54.0399 8.55999C54.4503 8.40201 54.879 8.29184 55.2922 8.14023C56.0283 7.87009 56.657 7.74518 57.3244 8.45141C57.7637 8.91619 58.6018 8.84467 59.1833 9.22159C59.381 9.34989 59.6882 9.372 59.8119 9.54054C60.296 10.1994 60.6508 10.5404 60.9257 9.40069C60.9888 9.13912 61.407 9.05186 61.6325 9.3204C61.9752 9.7286 62.2838 9.63298 62.6726 9.40846C63.3249 9.03194 64.0815 9.22279 64.784 9.08592C65.5294 8.94069 65.0404 8.61935 64.9443 8.34224L64.9577 8.32571C65.5442 8.44584 66.1279 8.5827 66.7182 8.67912C67.0306 8.73012 67.2507 8.73769 67.3477 8.24861C67.5583 7.18697 68.035 6.98676 69.2006 7.09653C69.6178 7.13577 70.021 7.06385 70.4436 7.25052C70.6876 7.3583 71.1253 7.31088 71.193 6.87738C71.2875 6.27276 71.5965 6.35065 72.0519 6.48413C72.473 6.60744 73.0478 6.81842 73.0418 5.96835C73.0402 5.74562 73.3155 5.70498 73.5089 5.66275C74.3586 5.47747 75.1511 5.0874 76.0671 5.12824C76.9082 5.1657 77.1351 4.60729 76.6831 3.80543C76.9309 3.609 77.0736 3.33747 77.2068 3.05916ZM50.2532 19.6156C49.3664 19.7722 48.7648 20.3071 48.4036 21.0779C48.2271 21.4546 48.0733 21.7925 47.683 21.978C47.5529 22.0397 47.2892 22.0043 47.3211 22.174C47.346 22.3063 47.6121 22.2786 47.7548 22.2288C48.4696 21.9796 49.181 21.7463 49.9472 21.6797C50.3657 21.6433 50.7414 21.7034 51.1062 21.8704C51.4648 22.0345 51.4188 22.3736 51.4385 22.6956C51.454 22.9458 51.6499 23.1544 51.9003 23.1673C52.7027 23.2085 53.4674 23.8889 54.3174 23.296C54.4485 23.2046 54.7336 23.2235 54.8934 23.3018C55.7775 23.7359 56.7232 23.4347 57.6318 23.5596C58.0769 23.6207 58.2351 23.185 58.3203 22.8619C58.4245 22.4667 58.1038 22.4587 57.796 22.4374C57.5294 22.4188 57.2529 22.1957 57.0107 22.2372C56.1763 22.3798 55.809 22.0333 55.7562 21.2325C55.7456 21.0707 55.6474 20.9165 55.4464 20.9442C55.3111 20.9629 55.3229 21.1114 55.2717 21.2098C54.9762 21.7784 54.2114 21.876 53.8457 21.3923C53.7347 21.2456 53.7249 20.8566 53.5638 20.9374C52.7332 21.3542 52.3659 20.583 51.8124 20.3153C51.4491 20.1394 51.2232 20.0748 51.1867 20.6024C51.1674 20.8831 51.0104 21.2375 50.6938 21.1442C50.239 21.0104 50.6426 20.695 50.6622 20.4569C50.6922 20.1001 50.9504 19.6252 50.2532 19.6156ZM53.4223 15.2452C53.976 15.2741 53.9301 15.245 54.1551 14.8906C54.6832 14.058 54.4738 13.2351 54.1981 12.4059C54.1206 12.1726 54.1515 11.7417 53.7239 11.8941C53.3984 12.0103 53.1946 12.3892 53.4056 12.6758C54.1186 13.6456 53.1805 14.1138 52.7968 14.7003C52.5569 15.0671 52.0748 15.439 51.6676 14.7463C51.608 14.6449 51.4708 14.5628 51.3744 14.6585C51.3052 14.727 51.2777 14.883 51.2971 14.988C51.4242 15.6761 51.9662 15.5295 52.4296 15.5307C52.787 15.5316 53.0135 15.0711 53.4223 15.2452ZM60.0095 20.0864C59.8406 19.428 58.9066 19.4849 58.7686 18.7295C58.7371 18.5572 58.5016 18.9941 58.3341 19.1208C58.0687 19.3214 57.8008 19.3814 57.6364 19.0514C57.5019 18.7815 57.3573 18.6193 57.1234 18.8658C56.8561 19.1475 56.5395 19.4383 56.5909 19.8931C56.6236 20.1822 56.8459 20.3472 57.0901 20.294C57.8567 20.127 58.5667 20.2342 59.2905 20.5191C59.5937 20.6382 59.9258 20.4952 60.0095 20.0864ZM59.2539 26.3361C59.003 26.3903 58.9933 26.5725 58.9801 26.772C58.9415 27.3533 59.3594 27.6914 59.6668 28.0872C59.8063 28.2667 59.9495 28.5876 60.18 28.4894C60.5127 28.3476 60.3031 28.0209 60.2402 27.7742C60.1209 27.3057 59.7754 26.963 59.5334 26.563C59.478 26.4709 59.358 26.418 59.2539 26.3361ZM-0.720947 16.0592C0.280924 15.4448 1.29535 14.8573 2.41675 14.4788C2.55979 14.4306 2.75861 14.3419 2.74307 14.169C2.72514 13.9688 2.48349 14.0558 2.35678 13.9813C1.84061 13.6777 1.30551 13.4006 0.816225 13.0581C0.211795 12.635 0.239885 12.2848 0.862244 11.9057C0.996518 11.8238 1.1545 11.7814 1.30072 11.7184C1.46827 11.6461 1.80933 11.6959 1.74239 11.4487C1.68362 11.2315 1.39217 11.4367 1.2047 11.4261C1.04712 11.4174 0.877783 11.4263 0.73574 11.3708C0.461815 11.2636 0.220162 11.0594 0.26917 10.7478C0.331525 10.3512 0.683744 10.3205 1.01385 10.3167C1.16087 10.3149 1.37165 10.4872 1.43699 10.3032C1.49775 10.1322 1.24594 10.1049 1.11904 10.0226C0.170955 9.40706 0.174541 9.25645 1.1296 8.70203C1.37125 8.56178 1.59756 8.38946 1.85117 8.2773C2.57214 7.95855 3.24968 7.7655 4.10054 8.06473C5.02273 8.38906 6.05986 8.37013 7.03265 8.57074C8.23951 8.81957 9.38542 8.82535 10.6162 8.51257C11.7984 8.21215 13.0656 8.43568 14.2513 8.85264C14.3938 8.90264 14.5765 9.02855 14.6872 8.8632C14.7874 8.71358 14.6651 8.55122 14.531 8.46098C14.3308 8.3265 14.1477 8.21355 14.0969 7.93464C14.0394 7.61868 13.8525 7.54816 13.6089 7.81013C13.32 8.12071 12.9724 8.11513 12.6177 7.96074C12.2548 7.80276 11.9773 7.57087 12.2285 7.13298C12.3691 6.88774 12.5231 6.66382 12.5062 6.36121C12.4823 5.93667 12.8534 5.84324 13.065 5.97911C13.7457 6.41579 14.5992 6.17374 15.2907 6.70805C15.8592 7.14752 16.6444 7.27642 17.3944 6.81921C17.8273 6.55545 18.2841 6.49708 18.1895 7.27542C18.1528 7.57764 18.2542 7.90755 18.4782 8.02608C19.093 8.35141 19.6087 8.60222 18.7336 9.23872C18.5501 9.3722 18.6865 9.62362 18.9149 9.68836C19.187 9.76546 19.5773 9.81905 19.6085 9.47201C19.6452 9.0654 19.7862 8.84467 20.1036 8.61019C20.6214 8.22769 20.5343 7.9942 19.8693 7.98723C19.329 7.98145 19.144 7.42165 18.7373 7.19873C19.2109 7.11346 19.397 6.54549 19.9076 6.51042C20.1855 6.4913 20.4608 6.43113 20.7367 6.38571C21.1304 6.32097 21.3999 6.12494 21.4579 5.70219C21.4874 5.48783 21.4718 5.29021 21.2186 5.23981C20.8574 5.16809 20.5399 4.95333 20.214 5.47628C19.7538 6.21438 18.8419 5.59661 18.2046 5.93468L18.0395 5.4974C18.1393 5.39141 18.1504 5.28563 18.0391 5.17984C18.121 4.75471 17.8124 4.37141 18.0186 3.89468C18.3644 3.09502 18.4513 3.01334 19.1485 3.45521C19.3565 3.58709 19.6227 3.7357 19.5414 3.9917C19.4324 4.33396 19.1426 4.0439 18.9354 4.05784C18.6782 4.07517 18.4305 4.09828 18.4278 4.42102C18.425 4.73857 18.6595 4.79495 18.9248 4.79336C19.2043 4.79176 19.4846 4.81925 19.7631 4.80431C20.2769 4.77682 20.5771 4.60251 20.1642 4.07039C19.9845 3.8387 19.7538 3.5829 20.05 3.34902C20.3584 3.10538 20.5723 3.45939 20.7218 3.64785C20.871 3.83611 21.3943 3.83591 21.0845 4.35328C20.9907 4.51007 21.4874 4.61705 21.741 4.6796C21.8623 4.70949 21.9816 4.63538 22.0119 4.50011C22.0733 4.22539 21.9424 4.0423 21.7077 3.91779C21.6705 3.89896 21.6349 3.87725 21.6011 3.85285C20.1189 2.76352 20.1367 2.42186 21.7282 1.48513C22.0036 1.32268 22.3019 1.20286 22.6131 1.12972C24.2424 0.741248 25.912 0.629089 27.5655 0.435648C28.2566 0.354765 28.9887 0.591436 29.6976 0.711963C29.9669 0.757783 30.4377 0.868948 30.4442 0.973936C30.4636 1.27914 30.0396 1.26798 29.8502 1.46282C29.7426 1.57358 29.542 1.65247 29.649 1.83854C29.7711 2.05071 30.0414 2.06087 30.1582 1.90429C30.8536 0.972541 31.8236 1.20822 32.7777 1.14885C33.554 1.10064 34.3382 0.998439 35.136 0.723916C36.0146 0.421502 37.0625 0.333846 38.0496 0.254756C38.2474 0.239018 38.5018 0.351377 38.6401 0.263323C39.8342 -0.496099 40.8327 0.634069 41.9475 0.58028C42.0804 0.573905 42.1828 0.686263 42.1402 0.81954C42.1083 0.919149 42.0051 1.06219 41.924 1.06876C41.367 1.11439 40.8072 1.12634 40.2486 1.15642C40.1334 1.1626 40.0199 1.20045 39.9055 1.22376C39.9733 1.41919 40.147 1.35245 40.2731 1.35225C41.4662 1.34946 42.6571 1.518 43.854 1.37457C44.1447 1.3397 44.5661 1.29826 44.6232 1.73555C44.6683 2.0796 44.3025 2.14474 44.0646 2.27523C43.2096 2.74459 42.2561 3.15737 42.9111 4.43835C42.993 4.59832 42.7805 4.74614 42.784 4.87045C42.8163 5.97512 41.8507 6.83854 42.0569 7.99022C42.1149 8.31415 41.9115 8.65203 41.5822 8.75363C40.8628 8.97556 40.3032 9.60967 39.4816 9.55847C39.4039 9.55369 39.3077 9.55907 39.2475 9.60031C38.0713 10.4048 36.5051 10.7865 36.1112 12.4457C35.9616 13.0759 35.5926 13.1546 35.0299 12.9936C34.1384 12.7386 33.6975 12.0603 33.2496 11.3279C32.7857 10.5691 32.5844 9.8822 33.2951 9.16959C33.406 9.05843 33.3983 8.91898 33.2431 8.77375C32.8887 8.44225 32.2623 7.35611 32.1683 6.99492C31.88 5.88687 30.7767 4.98222 29.6836 5.27427C28.4758 5.59701 28.0411 4.79296 27.4344 4.15665C27.1878 3.89807 27.404 3.71718 27.6269 3.60581C27.9458 3.44624 28.3216 3.44724 28.6306 3.2267C28.881 3.048 28.8979 2.8954 28.7702 2.63243C28.6355 2.35492 28.4706 2.45254 28.2881 2.52565C27.2025 2.96035 26.2391 3.49286 25.8827 4.75571C25.7634 5.17905 25.4291 5.52449 25.3195 6.00939C25.2253 6.42655 24.6539 6.33153 24.2687 6.39408C24.1282 6.41699 23.885 6.28411 23.8726 6.47855C23.8634 6.62278 24.1553 6.55385 24.2804 6.62577C25.1462 7.12262 26.22 6.82021 27.0842 7.44596C27.7723 7.9442 28.5831 8.20538 28.918 9.1421C29.0814 9.59931 29.7147 9.76466 30.1916 9.96508C30.4146 10.0587 30.7379 10.131 30.4944 10.4193C30.3038 10.645 30.2133 11.1863 29.7033 10.9173C29.5316 10.8267 29.4037 10.6544 29.2521 10.5237C29.1641 10.4478 29.0447 10.3464 28.9469 10.432C28.8389 10.5265 28.9441 10.644 29.0192 10.7295C29.1248 10.8498 29.2539 10.9516 29.3475 11.0797C29.5185 11.3136 29.9663 11.5323 29.6159 11.8545C29.3515 12.0977 29.0186 12.4892 28.571 12.2792C27.689 11.8658 26.8989 11.2 25.8186 11.3921C25.7162 11.4102 25.6156 11.2745 25.6138 11.1441C25.6116 10.998 25.7156 10.9383 25.8457 10.9279C26.0447 10.912 26.2553 10.941 26.4413 10.8857C26.9521 10.7335 27.2659 10.1021 27.084 9.64712C26.8726 9.1186 25.5921 8.50401 24.9858 8.57353C24.5561 8.62294 24.8366 8.79208 24.8075 8.97476C24.7257 9.48954 25.1359 10.3053 24.0401 10.3494C23.6511 10.3651 23.9591 10.6857 24.1159 10.8309C24.4007 11.0948 25.0671 11.1365 24.989 11.521C24.9147 11.8875 24.2651 11.3546 23.9358 11.728C23.7987 11.8834 23.5431 11.8995 23.3793 11.7658C22.7367 11.2415 22.3486 11.7857 21.9382 12.1109C20.7174 13.0783 20.7678 13.613 22.185 14.2959C22.5056 14.4503 22.801 14.6826 23.1441 14.7661C24.0378 14.9838 24.7992 15.3169 25.0237 16.3393C25.0633 16.5194 25.2857 16.8457 25.5544 16.5935C25.7022 16.4546 25.7032 16.2231 25.5891 16.0556C25.239 15.5416 25.3052 15.2005 25.9056 14.9378C26.1736 14.8206 26.0921 14.512 25.9799 14.2979C25.7805 13.9174 25.857 13.516 25.8387 13.1209C25.7921 12.1079 26.361 11.7371 27.2733 12.2184C27.6201 12.4015 28.0191 12.6163 28.2134 12.9289C28.5393 13.4534 28.7955 13.7253 29.4262 13.3343C29.8362 13.0801 30.1279 13.4703 30.2604 13.7879C30.5502 14.4826 31.0803 14.93 31.6198 15.4095C32.0306 15.7747 32.6807 16.1026 32.2938 16.8841C32.1687 17.1366 32.4512 17.1923 32.606 17.2967C32.8749 17.4782 33.1265 17.6792 33.1863 18.0255C33.2138 18.1846 33.1108 18.4653 33.0913 18.4502C32.651 18.1093 32.1252 18.4339 31.6921 18.2601C31.4001 18.143 31.3838 17.8334 31.4931 17.5314C31.6611 17.0674 31.4178 17.0794 31.072 17.165C30.8421 17.222 30.5887 17.2585 30.3578 17.2236C29.5254 17.0983 29.5723 17.3812 29.8253 18.045C30.0498 18.6341 30.2797 18.5881 30.6984 18.3516C30.8943 18.241 31.1005 18.2659 31.1921 18.4956C31.2792 18.7138 31.1433 18.969 30.9769 18.9959C30.3528 19.0971 29.8432 19.8491 29.1017 19.3204C28.8786 19.1614 28.5036 19.2821 28.4654 19.4596C28.314 20.1641 27.7203 20.3496 27.2306 20.6729C27.1382 20.7338 27.0707 20.8588 27.0302 20.9683C26.6698 21.9401 26.1549 22.7719 25.301 23.4251C24.8671 23.757 24.839 24.3341 25.2843 24.8113C25.5028 25.0453 25.5646 25.3685 25.2701 25.537C24.9785 25.7038 24.9374 25.2852 24.7623 25.1557C24.5757 25.0176 24.4179 24.8172 24.2995 24.6138C23.9507 24.0146 23.415 23.95 22.8444 24.1329C22.4952 24.2449 22.1579 24.3295 21.794 24.3297C21.0776 24.3301 20.4381 24.2947 20.6042 25.4159C20.6662 25.834 20.0681 26.3038 20.6152 26.8377C21.0136 27.2264 21.3736 27.4109 21.8762 27.0971C22.0458 26.9913 22.2043 26.8672 22.3759 26.7646C22.6257 26.615 22.9365 26.5002 23.1747 26.6479C23.5403 26.8746 23.1823 27.1596 23.0857 27.3563C22.7749 27.99 22.8361 28.3183 23.6316 28.3117C24.0559 28.3083 24.2928 28.592 24.3025 29.0092C24.3117 29.4001 24.1459 29.8915 24.6458 30.0425C25.1671 30.1999 25.8289 30.2533 26.2357 29.9282C27.1115 29.2283 27.9743 29.3766 28.9158 29.6716C29.169 29.7509 29.432 29.7883 29.6968 29.8057C31.224 29.9065 32.0645 31.3488 33.4666 31.6895C33.9447 33.3442 35.6534 33.0884 36.7535 33.7755C37.0386 33.9536 37.4047 34.045 37.7131 34.2353C38.3078 34.6027 38.4718 35.0742 38.0205 35.6278C37.5693 36.1815 37.4526 36.8299 37.2605 37.4856C36.9447 38.5631 36.7503 39.8078 35.2012 39.9059C34.7836 39.9324 34.5667 40.3252 34.4432 40.7446C33.9475 42.4276 33.7684 42.6051 31.9501 43.3075C31.8091 43.3621 31.7682 43.4179 31.8145 43.5474C32.1001 44.347 31.5525 44.5648 30.973 44.619C30.4313 44.6698 30.4036 45.1202 30.1886 45.4135C29.8022 45.9408 29.7121 46.659 29.136 47.0777C29.1001 47.1038 29.1404 47.3355 29.2091 47.3883C29.5816 47.6742 29.4165 47.8585 29.1796 48.1561C28.3939 49.1442 28.408 49.1984 29.1137 50.2264C29.2264 50.3905 29.4444 50.5129 29.0903 50.632C28.1333 50.9539 27.2348 50.5089 26.8722 49.556C26.5894 48.8129 26.5726 48.0009 26.7702 47.3062C27.1828 45.8555 27.1227 44.348 27.4733 42.877C27.7416 41.7508 27.9582 40.4979 27.9761 39.2719C27.9875 38.5048 27.6815 37.9141 27.0739 37.5549C26.4013 37.1572 26.0244 36.5986 25.771 35.9026C25.7036 35.7177 25.5827 35.5527 25.4976 35.3734C25.2731 34.9003 24.381 34.7439 24.893 33.9062C25.1699 33.4532 25.0482 32.794 25.5584 32.4194C25.8869 32.1784 25.9036 31.8277 25.9226 31.455C25.9429 31.0568 25.8469 30.8926 25.4088 30.85C24.6165 30.7731 23.7859 30.6876 23.5907 29.6525C23.5483 29.4276 23.2789 29.4029 23.1006 29.3668C22.1802 29.1797 21.4543 28.5687 20.3905 28.5299C19.4926 28.4972 18.2825 28.0416 17.8269 26.8457C17.6257 26.3175 17.4006 25.9337 16.5681 26.1022C15.8871 26.2401 15.4453 25.3836 15.2142 24.763C14.8538 23.7958 14.34 23.0532 13.5079 22.3872C12.6084 21.6674 12.3613 20.4848 12.3841 19.3355C12.3996 18.5502 12.4592 17.8069 11.6145 17.3796C11.4346 17.2886 11.3609 17.1421 11.336 16.9071C11.237 15.9747 11.1605 15.9225 10.1703 15.8438C9.85179 15.8185 9.86434 15.548 9.7472 15.3508C9.02703 14.1391 8.11241 13.242 6.5842 13.0769C6.03038 13.0169 5.69031 13.3026 5.24824 13.3881C4.77908 13.4787 4.22067 13.26 4.52906 14.1319C4.62011 14.3897 4.21629 14.78 3.88599 14.6732C3.28215 14.4778 2.99448 14.8013 2.6849 15.185C2.61119 15.2764 2.51715 15.4173 2.4281 15.4207C1.33399 15.4623 0.429541 16.1879 -0.650822 16.267L-0.720947 16.0592ZM22.0237 7.11505C21.8274 7.14812 21.6314 7.18677 21.4953 7.34993C21.3401 7.536 21.3985 7.73124 21.5282 7.88703C21.9482 8.39125 22.2603 9.016 23.0032 9.16621C23.1475 9.19529 22.9658 9.63417 23.2767 9.55748C23.4285 9.52022 23.5849 9.2951 23.6399 9.12318C23.7108 8.90145 23.509 8.74685 23.321 8.70044C22.6765 8.54146 22.449 8.08505 22.3799 7.48819C22.3562 7.28439 22.294 7.09473 22.0237 7.11505Z" fill="#2D5A3D"/>
</svg>
