<svg width="56" height="57" viewBox="0 0 56 57" fill="none" xmlns="http://www.w3.org/2000/svg">
<path fill-rule="evenodd" clip-rule="evenodd" d="M31.0625 10.3541C31.0625 4.63566 26.4267 0 20.7083 0L20.1402 0.015254C14.6859 0.310209 10.3541 4.82634 10.3541 10.3541C10.3541 16.0726 14.9899 20.7083 20.7083 20.7083L21.2764 20.6929C26.7307 20.3981 31.0625 15.882 31.0625 10.3541ZM23.6666 44.375C23.6666 47.608 24.5309 50.6392 26.0412 53.25H0V42.6C0 33.9978 6.61021 26.9836 14.891 26.6383L15.5311 26.625H25.8853C28.5803 26.625 31.1149 27.331 33.324 28.5729C27.59 31.5154 23.6666 37.487 23.6666 44.375ZM32.7223 56.3417L41.4166 51.0312L50.1109 56.3417L47.7471 46.4318L55.4843 39.8041L45.3291 38.99L41.4166 29.5833L37.5041 38.99L27.3489 39.8041L35.0861 46.4318L32.7223 56.3417Z" fill="#2D5A3D"/>
</svg>
