<svg width="45" height="35" viewBox="0 0 45 35" fill="none" xmlns="http://www.w3.org/2000/svg">
<path d="M21.0078 4.15625L11.8984 14.2812C11.5391 14.6797 11.5547 15.2969 11.9375 15.6797C14.3203 18.0625 18.1875 18.0625 20.5703 15.6797L23.0547 13.1953C23.3828 12.8672 23.7969 12.6875 24.2188 12.6562C24.75 12.6094 25.2969 12.7891 25.7031 13.1953L39.5 26.875L45 22.5V0L36.25 5L34.3906 3.75781C33.1569 2.93725 31.7082 2.49964 30.2266 2.5H24.7266C24.6406 2.5 24.5469 2.5 24.4609 2.50781C23.1406 2.57812 21.8984 3.17187 21.0078 4.15625ZM9.10938 11.7734L17.4531 2.5H14.3594C12.3672 2.5 10.4609 3.28906 9.05469 4.69531L8.75 5L0 0V22.5L12.2188 32.6797C14.0156 34.1797 16.2812 35 18.6172 35H19.8438L19.2969 34.4531C18.5625 33.7187 18.5625 32.5312 19.2969 31.8047C20.0312 31.0781 21.2188 31.0703 21.9453 31.8047L25.1484 35.0078H25.8516C27.3438 35.0078 28.8047 34.6719 30.1328 34.0469L28.0469 31.9531C27.3125 31.2187 27.3125 30.0312 28.0469 29.3047C28.7812 28.5781 29.9688 28.5703 30.6953 29.3047L33.1953 31.8047L34.5625 30.4375C35.2578 29.7422 35.4609 28.7344 35.1562 27.8516L24.3828 17.1641L23.2188 18.3281C19.3672 22.1797 13.1328 22.1797 9.28125 18.3281C7.48438 16.5312 7.41406 13.6484 9.10938 11.7656V11.7734Z" fill="#1E4538"/>
</svg>
