<svg width="34" height="27" viewBox="0 0 34 27" fill="none" xmlns="http://www.w3.org/2000/svg">
<path d="M18.3333 0C18.7754 0 19.1993 0.175595 19.5118 0.488156C19.8244 0.800716 20 1.22464 20 1.66667H26.6667C26.9176 1.66667 27.1653 1.72333 27.3912 1.83241C27.6172 1.9415 27.8156 2.1002 27.9717 2.29667L28.095 2.47667L33.095 10.81L33.1867 10.9817L33.2533 11.16L33.3017 11.3417L33.3283 11.525L33.3333 11.6667V21.6667C33.3333 22.1087 33.1577 22.5326 32.8452 22.8452C32.5326 23.1577 32.1087 23.3333 31.6667 23.3333H29.715C29.37 24.3081 28.7313 25.1519 27.887 25.7487C27.0426 26.3456 26.034 26.666 25 26.666C23.966 26.666 22.9574 26.3456 22.113 25.7487C21.2687 25.1519 20.63 24.3081 20.285 23.3333H13.0483C12.7033 24.3081 12.0647 25.1519 11.2203 25.7487C10.3759 26.3456 9.36733 26.666 8.33333 26.666C7.29933 26.666 6.29074 26.3456 5.44637 25.7487C4.60201 25.1519 3.96336 24.3081 3.61833 23.3333H1.66667C1.22464 23.3333 0.800716 23.1577 0.488155 22.8452C0.175595 22.5326 0 22.1087 0 21.6667V3.33333C0 2.44928 0.351189 1.60143 0.976311 0.976311C1.60143 0.351189 2.44928 0 3.33333 0H18.3333ZM8.33333 20C7.89131 20 7.46738 20.1756 7.15482 20.4882C6.84226 20.8007 6.66667 21.2246 6.66667 21.6667C6.66667 22.1087 6.84226 22.5326 7.15482 22.8452C7.46738 23.1577 7.89131 23.3333 8.33333 23.3333C8.77536 23.3333 9.19928 23.1577 9.51184 22.8452C9.8244 22.5326 10 22.1087 10 21.6667C10 21.2246 9.8244 20.8007 9.51184 20.4882C9.19928 20.1756 8.77536 20 8.33333 20ZM25 20C24.558 20 24.134 20.1756 23.8215 20.4882C23.5089 20.8007 23.3333 21.2246 23.3333 21.6667C23.3333 22.1087 23.5089 22.5326 23.8215 22.8452C24.134 23.1577 24.558 23.3333 25 23.3333C25.442 23.3333 25.866 23.1577 26.1785 22.8452C26.4911 22.5326 26.6667 22.1087 26.6667 21.6667C26.6667 21.2246 26.4911 20.8007 26.1785 20.4882C25.866 20.1756 25.442 20 25 20ZM25.7233 5H20V10H28.7233L25.7233 5Z" fill="#1E4538"/>
</svg>
