<svg width="60" height="60" viewBox="0 0 60 60" fill="none" xmlns="http://www.w3.org/2000/svg">
<path d="M5.91667 59.1667C4.28958 59.1667 2.89719 58.5878 1.7395 57.4301C0.581806 56.2724 0.00197222 54.8791 0 53.25V27.5125C0 26.3292 0.320486 25.2444 0.961459 24.2583C1.60243 23.2722 2.48993 22.5326 3.62396 22.0396L16.5667 16.5667C17.5528 16.1722 18.4896 16.2462 19.3771 16.7885C20.2646 17.3309 20.7083 18.1444 20.7083 19.2292V20.7083L31.4323 16.4188C32.4184 16.0243 33.3424 16.1229 34.2043 16.7146C35.0661 17.3062 35.498 18.1198 35.5 19.1552V23.6667H59.1667V53.25C59.1667 54.8771 58.5878 56.2705 57.4301 57.4301C56.2724 58.5898 54.8791 59.1686 53.25 59.1667H5.91667ZM26.625 47.3333H32.5417V35.5H26.625V47.3333ZM14.7917 47.3333H20.7083V35.5H14.7917V47.3333ZM38.4583 47.3333H44.375V35.5H38.4583V47.3333ZM58.575 19.2292H44.8927L47.0375 2.58854C47.1361 1.84896 47.4694 1.23264 48.0374 0.739583C48.6054 0.246528 49.2582 0 49.9958 0H53.6198C54.3594 0 55.0003 0.246528 55.5427 0.739583C56.0851 1.23264 56.4056 1.84896 56.5042 2.58854L58.575 19.2292Z" fill="#2D5A3D"/>
</svg>
