<svg width="54" height="55" viewBox="0 0 54 55" fill="none" xmlns="http://www.w3.org/2000/svg">
<path d="M2.95833 54.7485V45.8735H12.1292L4.58542 21.1714C3.25417 20.4319 2.15761 19.3471 1.29575 17.9173C0.433889 16.4874 0.00197222 14.959 0 13.3319C0 10.8666 0.862847 8.7711 2.58854 7.04541C4.31424 5.31971 6.40972 4.45687 8.875 4.45687C10.7979 4.45687 12.5118 5.01205 14.0166 6.12241C15.5214 7.23277 16.5686 8.64981 17.1583 10.3735H26.625V7.4152C26.625 6.57701 26.909 5.8749 27.477 5.30887C28.045 4.74284 28.7471 4.45884 29.5833 4.45687C30.0271 4.45687 30.459 4.55548 30.8791 4.7527C31.2992 4.94992 31.6561 5.24576 31.95 5.6402L36.9792 0.906867C37.4229 0.463117 37.9534 0.179118 38.5707 0.0548675C39.1881 -0.0693825 39.7916 0.0173948 40.3812 0.3152L51.9187 5.6402C52.5104 5.93603 52.9177 6.36795 53.1405 6.93595C53.3634 7.50395 53.3506 8.05815 53.1021 8.59853C52.8062 9.1902 52.3753 9.57281 51.8093 9.74637C51.2433 9.91992 50.6881 9.88245 50.1437 9.63395L39.4938 4.7527L32.5417 11.261V15.4027L39.4938 21.7631L50.1437 16.8819C50.6861 16.6353 51.2531 16.6107 51.8448 16.8079C52.4365 17.0051 52.8555 17.3749 53.1021 17.9173C53.3979 18.5089 53.4226 19.076 53.176 19.6183C52.9295 20.1607 52.5104 20.5798 51.9187 20.8756L40.3812 26.3485C39.7896 26.6444 39.1861 26.7302 38.5707 26.6059C37.9554 26.4817 37.4249 26.1986 36.9792 25.7569L31.95 21.0235C31.6542 21.3194 31.2972 21.5905 30.8791 21.8371C30.461 22.0836 30.0291 22.2069 29.5833 22.2069C28.7451 22.2069 28.043 21.9239 27.477 21.3578C26.911 20.7918 26.627 20.0887 26.625 19.2485V16.2902H17.1583C17.0104 16.6846 16.8507 17.0544 16.6791 17.3996C16.5075 17.7447 16.2728 18.1145 15.975 18.5089L30.7667 45.8735H41.4167V54.7485H2.95833ZM8.875 16.2902C9.71319 16.2902 10.4163 16.0062 10.9843 15.4382C11.5523 14.8702 11.8353 14.1681 11.8333 13.3319C11.8314 12.4956 11.5483 11.7935 10.9843 11.2255C10.4202 10.6575 9.71714 10.3735 8.875 10.3735C8.03286 10.3735 7.33075 10.6575 6.76867 11.2255C6.20658 11.7935 5.92258 12.4956 5.91667 13.3319C5.91075 14.1681 6.19475 14.8712 6.76867 15.4412C7.34258 16.0111 8.04469 16.2941 8.875 16.2902Z" fill="#2D5A3D"/>
</svg>
