<svg width="68" height="35" viewBox="0 0 68 35" fill="none" xmlns="http://www.w3.org/2000/svg">
<path d="M44.2228 2.10588L50.5403 8.42341L64.4178 8.40236C64.811 8.40075 65.2005 8.47699 65.5641 8.6267C65.9276 8.7764 66.2579 8.9966 66.5359 9.2746C66.8139 9.5526 67.0341 9.88289 67.1838 10.2464C67.3335 10.6099 67.4097 10.9995 67.4081 11.3927L67.3871 22.2799C67.3847 23.0667 67.0711 23.8205 66.5148 24.3769C65.9585 24.9332 65.2046 25.2468 64.4178 25.2491L54.752 25.2702L37.9052 8.42341L33.6935 12.6351C33.135 13.1936 32.3775 13.5074 31.5877 13.5074C30.7979 13.5074 30.0404 13.1936 29.4819 12.6351C28.9233 12.0766 28.6096 11.3191 28.6096 10.5293C28.6096 9.73941 28.9233 8.98192 29.4819 8.42341L35.7994 2.10588C36.9164 0.98887 38.4314 0.36134 40.0111 0.36134C41.5908 0.36134 43.1058 0.98887 44.2228 2.10588ZM21.0585 3.49113e-05L12.6351 8.42341L2.99033 8.42341C2.20355 8.42576 1.44967 8.73934 0.89334 9.29567C0.337004 9.85201 0.023424 10.6059 0.0210831 11.3927L2.34717e-05 22.2799C-0.00158755 22.673 0.0746591 23.0626 0.224364 23.4261C0.37407 23.7896 0.594275 24.1199 0.872272 24.3979C1.15027 24.6759 1.48055 24.8961 1.84408 25.0458C2.20761 25.1955 2.59718 25.2718 2.99032 25.2702L21.0585 25.2702L29.4819 33.6936C30.0404 34.2521 30.7979 34.5658 31.5877 34.5658C32.3775 34.5658 33.135 34.2521 33.6935 33.6936L35.7994 31.5877L37.9052 33.6936C38.4637 34.2521 39.2212 34.5658 40.0111 34.5658C40.8009 34.5658 41.5584 34.2521 42.1169 33.6936L44.2228 31.5877L46.3286 33.6936C46.8871 34.2521 47.6446 34.5658 48.4345 34.5658C49.2243 34.5658 49.9818 34.2521 50.5403 33.6936L52.6462 31.5877L37.9052 16.8468L35.7994 18.9526C34.6824 20.0696 33.1674 20.6972 31.5877 20.6972C30.008 20.6972 28.493 20.0696 27.376 18.9526L23.1643 14.7409C22.0473 13.6239 21.4198 12.1089 21.4198 10.5293C21.4198 8.94957 22.0473 7.43458 23.1643 6.31757L29.4819 3.38998e-05L21.0585 3.49113e-05Z" fill="#2D5A3D"/>
</svg>
