<svg width="43" height="45" viewBox="0 0 43 45" fill="none" xmlns="http://www.w3.org/2000/svg">
<path d="M40.25 2L38.125 4.125M2 2L4.125 4.125M40.25 31.75L38.125 29.625M2 31.75L4.125 29.625M14.75 36H27.5M16.875 42.375H25.375M21.125 4.125C12.625 4.125 8.273 8.26875 8.375 14.75C8.42388 17.9099 9.4375 20.0625 11.5625 22.1875C13.6875 24.3125 14.75 25.375 14.75 29.625H27.5C27.5 25.375 28.5625 24.3125 30.6875 22.1875C32.8125 20.0625 33.8261 17.9099 33.875 14.75C33.977 8.26875 29.625 4.125 21.125 4.125Z" stroke="white" stroke-width="4" stroke-linecap="round" stroke-linejoin="round"/>
</svg>
