<svg width="51" height="51" viewBox="0 0 51 51" fill="none" xmlns="http://www.w3.org/2000/svg">
<g clip-path="url(#clip0_4_1134)">
<path d="M25.72 4.04043e-06C26.5551 4.04043e-06 27.3775 0.0541915 28.1425 0.181692C28.8962 0.27878 29.6397 0.443059 30.3642 0.672567C31.0867 0.889316 31.8028 1.16875 32.5126 1.51088C33.2042 1.83919 33.9151 2.24082 34.6259 2.6775C35.8276 3.4425 37.0101 4.06088 38.215 4.55494C40.5863 5.50622 43.0949 6.0712 45.6451 6.22838C46.9349 6.324 48.2705 6.37288 49.6517 6.375V19.125C49.6517 21.5454 49.3426 23.8468 48.7242 26.0291C48.1301 28.1845 47.286 30.2631 46.2092 32.2224C45.1371 34.1792 43.8683 36.0215 42.4225 37.7209C40.9554 39.4597 39.3662 41.0916 37.6667 42.6041C35.9434 44.1192 34.1307 45.5296 32.2384 46.8276C30.3429 48.1451 28.4368 49.3595 26.5201 50.4709L25.7551 50.9267L24.9901 50.4709C23.0238 49.3329 21.1035 48.1175 19.2334 46.8276C17.331 45.5435 15.5175 44.1325 13.8051 42.6041C12.1068 41.0915 10.5186 39.4596 9.05255 37.7209C7.61165 36.0135 6.33723 34.1723 5.24668 32.2224C4.18926 30.2539 3.34612 28.1776 2.73174 26.0291C2.11356 23.7803 1.80683 21.4572 1.82012 19.125V6.375C3.20137 6.37288 4.53799 6.324 5.82999 6.22838C7.10411 6.14177 8.36992 5.95957 9.61674 5.68332C10.8376 5.40919 12.0584 5.04582 13.2601 4.55494C14.5067 4.05102 15.7022 3.42873 16.8301 2.69663C18.2326 1.785 19.6542 1.11244 21.0567 0.669379C22.5672 0.206839 24.1403 -0.018962 25.72 4.04043e-06ZM46.4451 9.50832C44.0324 9.39023 41.6421 8.98686 39.3242 8.30663C37.0195 7.61733 34.8238 6.60536 32.8026 5.30082C31.7539 4.61425 30.616 4.07479 29.4207 3.6975C28.2259 3.33719 26.9838 3.15881 25.7359 3.16838C24.4788 3.16072 23.2274 3.33902 22.0225 3.6975C20.8258 4.06354 19.6895 4.60377 18.6501 5.30082C16.6247 6.61117 14.4236 7.62749 12.1126 8.31938C9.85368 8.976 7.48537 9.37763 5.00762 9.52425V19.1409C5.00762 21.2511 5.28174 23.2783 5.82999 25.2227C6.38901 27.1532 7.15864 29.0163 8.12499 30.7785C9.10332 32.5589 10.2565 34.2374 11.5675 35.7893C12.8967 37.3543 14.3151 38.811 15.8451 40.1944C17.3751 41.5778 18.9784 42.8591 20.6551 44.0385C22.3487 45.22 24.0423 46.3006 25.7359 47.2802C27.4698 46.2725 29.1597 45.191 30.8009 44.0385C32.4906 42.8624 34.1026 41.5783 35.6267 40.1944C37.1567 38.811 38.5784 37.3543 39.9076 35.7893C41.2185 34.2374 42.3717 32.5589 43.3501 30.7785C44.3115 29.0182 45.0697 27.1543 45.61 25.2227C46.1755 23.2453 46.4567 21.1975 46.4451 19.1409V9.50832Z" fill="white"/>
<path fill-rule="evenodd" clip-rule="evenodd" d="M37.603 15.0099L36.2005 13.8051L34.9064 13.9166L21.0089 30.3259L16.2754 23.5684L15.0004 23.3516L13.5246 24.4067L13.3047 25.6817L19.3896 34.3708L20.0813 34.7533L21.538 34.8426L22.2839 34.5174L37.6954 16.3009L37.603 15.0099Z" fill="white"/>
</g>
<defs>
<clipPath id="clip0_4_1134">
<rect width="51" height="51" fill="white"/>
</clipPath>
</defs>
</svg>
