<svg width="58" height="58" viewBox="0 0 58 58" fill="none" xmlns="http://www.w3.org/2000/svg">
<path fill-rule="evenodd" clip-rule="evenodd" d="M37.9585 15.3628L36.25 9.66667C36.25 8.33146 32.6395 7.25 29 7.25C25.3605 7.25 21.75 8.33146 21.75 9.66667L20.0414 15.3628C15.962 16.2352 13.2916 17.6888 13.2916 19.3333C13.2916 22.0038 20.3241 24.1667 29 24.1667C37.6758 24.1667 44.7083 22.0038 44.7083 19.3333C44.7083 17.6888 42.0379 16.2352 37.9585 15.3628ZM33.9928 10.5536C33.7533 10.4345 33.5043 10.3355 33.2485 10.2575C32.1694 9.91075 30.6131 9.66667 29 9.66667C27.3868 9.66667 25.8305 9.91075 24.7515 10.2587C24.4107 10.3675 24.1678 10.4714 24.0071 10.5536L23.1238 13.4983C23.3607 13.5313 23.6293 13.566 23.9298 13.6022C27.569 14.0249 31.2468 13.99 34.8773 13.4983L33.9928 10.5536ZM35.5781 15.8388C35.1702 15.8997 34.7613 15.9541 34.3517 16.002C30.7959 16.4159 27.204 16.4159 23.6482 16.002C23.2386 15.9543 22.8297 15.9 22.4218 15.8388L21.9445 17.4266L20.5465 17.7263C18.6325 18.1347 17.2163 18.6494 16.3415 19.1521C16.2427 19.2091 16.146 19.2695 16.0515 19.3333C16.559 19.6753 17.3963 20.0704 18.6035 20.4414C21.1579 21.2268 24.8336 21.75 29 21.75C33.1663 21.75 36.842 21.2268 39.3965 20.4414C40.6036 20.0704 41.441 19.6753 41.9485 19.3321C41.8539 19.2691 41.7572 19.2095 41.6585 19.1533C40.7836 18.6494 39.3675 18.1347 37.4535 17.7263L36.0554 17.4266L35.5781 15.8388ZM15.6237 18.9684L15.6358 18.9878C15.6269 18.9757 15.6229 18.9692 15.6237 18.9684ZM15.6334 19.6874L15.6418 19.6741L15.6394 19.6789L15.6334 19.6874ZM23.78 10.6913L23.7655 10.7034L23.7848 10.6865L23.78 10.6913ZM34.2175 10.6865L34.2381 10.7034C34.2365 10.7034 34.2296 10.6978 34.2175 10.6865Z" fill="white"/>
<path d="M19.3357 23.1444C19.3847 25.6753 20.4245 28.0859 22.2317 29.8585C24.0389 31.631 26.4692 32.6239 29.0005 32.6239C31.5319 32.6239 33.9622 31.631 35.7694 29.8585C37.5766 28.0859 38.6164 25.6753 38.6654 23.1444C37.8566 23.3366 37.0408 23.4979 36.2197 23.6277C36.0548 25.4286 35.2229 27.1028 33.8871 28.3218C32.5514 29.5408 30.8083 30.2166 28.9999 30.2166C27.1916 30.2166 25.4485 29.5408 24.1128 28.3218C22.777 27.1028 21.9451 25.4286 21.7802 23.6277C20.9595 23.4978 20.1441 23.3366 19.3357 23.1444Z" fill="white"/>
<path fill-rule="evenodd" clip-rule="evenodd" d="M16.7113 50.75C16.8442 50.3717 16.9167 49.9645 16.9167 49.5416V48.3333H41.0834V44.7083H36.673L36.4591 44.7796C36.0531 44.9101 35.4803 45.0805 34.7662 45.2484C32.8761 45.691 30.9413 45.9152 29.0001 45.9166C26.6583 45.9166 24.6573 45.5831 23.2351 45.2484C22.5912 45.0975 21.9546 44.9172 21.3271 44.7083H18.5081C19.4419 44.0891 20.2195 43.2619 20.7798 42.2916H21.7501V35.5419C24.1536 35.2205 26.5752 35.0534 29.0001 35.0416C36.2597 35.0416 50.7501 36.9544 50.7501 43.5V50.75H16.7113ZM46.9257 41.3527C48.0337 42.1805 48.3334 42.8885 48.3334 43.5V48.3333H43.5001V43.5C43.5001 43.1795 43.3727 42.8721 43.1461 42.6455C42.9195 42.4189 42.6122 42.2916 42.2917 42.2916V39.2454C44.2637 39.8375 45.8551 40.5528 46.9257 41.3527ZM36.2501 37.9815C37.462 38.1483 38.6873 38.3609 39.8751 38.6219V42.2916H36.2501V37.9815ZM29.0001 37.4583C30.614 37.4654 32.2268 37.5461 33.8334 37.7V42.9804C32.2452 43.3241 30.625 43.4983 29.0001 43.5C27.3751 43.4983 25.7549 43.3241 24.1667 42.9804V37.7C25.9393 37.5332 27.6081 37.4583 29.0001 37.4583Z" fill="white"/>
<path d="M9.66667 30.2083C9.66667 29.8879 9.53936 29.5805 9.31275 29.3539C9.08615 29.1273 8.7788 29 8.45833 29C8.13786 29 7.83052 29.1273 7.60391 29.3539C7.37731 29.5805 7.25 29.8879 7.25 30.2083V38.6667C7.25 39.9485 7.75922 41.1779 8.66565 42.0843C9.57208 42.9908 10.8015 43.5 12.0833 43.5V49.5417C12.0833 49.8621 12.2106 50.1695 12.4372 50.3961C12.6639 50.6227 12.9712 50.75 13.2917 50.75C13.6121 50.75 13.9195 50.6227 14.1461 50.3961C14.3727 50.1695 14.5 49.8621 14.5 49.5417V43.5C15.7819 43.5 17.0113 42.9908 17.9177 42.0843C18.8241 41.1779 19.3333 39.9485 19.3333 38.6667V30.2083C19.3333 29.8879 19.206 29.5805 18.9794 29.3539C18.7528 29.1273 18.4455 29 18.125 29C17.8045 29 17.4972 29.1273 17.2706 29.3539C17.044 29.5805 16.9167 29.8879 16.9167 30.2083V38.6667C16.9167 39.3076 16.6621 39.9223 16.2088 40.3755C15.7556 40.8287 15.1409 41.0833 14.5 41.0833V30.2083C14.5 29.8879 14.3727 29.5805 14.1461 29.3539C13.9195 29.1273 13.6121 29 13.2917 29C12.9712 29 12.6639 29.1273 12.4372 29.3539C12.2106 29.5805 12.0833 29.8879 12.0833 30.2083V41.0833C11.4424 41.0833 10.8277 40.8287 10.3745 40.3755C9.92128 39.9223 9.66667 39.3076 9.66667 38.6667V30.2083Z" fill="white"/>
</svg>
