<svg width="58" height="58" viewBox="0 0 58 58" fill="none" xmlns="http://www.w3.org/2000/svg">
<path d="M14.25 7.5V17.875H11.125V13.252L10.6826 13.7812C7.12334 18.0476 5.1875 23.3682 5.1875 29C5.1875 42.1301 15.87 52.8125 29 52.8125V52.8115C32.446 52.8195 35.8498 52.072 38.9756 50.626L40.3193 53.4482C36.7741 55.0937 32.9115 55.9456 29.001 55.9375H29C14.1469 55.9375 2.0625 43.8531 2.0625 29L2.06836 28.3779C2.20519 21.9655 4.64886 15.8088 8.96191 11.043L9.33984 10.625H3.875V7.5H14.25Z" fill="white" stroke="white" stroke-width="0.5"/>
<path d="M38.0625 16.5625H45.0625V23.5625C45.0625 29.422 40.2952 34.1875 34.4375 34.1875H30.5625V48.6875H27.4375V41.4375H23.5625C17.7048 41.4375 12.9375 36.672 12.9375 30.8125V23.8125H19.9375C22.5724 23.8134 25.1121 24.7983 27.0586 26.5742L27.4395 26.9219L27.4766 26.4082C27.8786 20.9132 32.4675 16.5625 38.0625 16.5625ZM16.0625 30.8125C16.0625 34.9489 19.4261 38.3125 23.5625 38.3125H25.2285L20.8223 33.9062L23.0312 31.6973L27.4375 36.1035V34.4375C27.4375 30.3011 24.0739 26.9375 19.9375 26.9375H16.0625V30.8125ZM38.0625 19.6875C33.9261 19.6875 30.5625 23.0511 30.5625 27.1875V28.8535L34.9688 24.4473L37.1777 26.6562L32.7715 31.0625H34.4375C38.5739 31.0625 41.9375 27.6989 41.9375 23.5625V19.6875H38.0625Z" fill="white" stroke="white" stroke-width="0.5"/>
<path d="M29 2.0625C43.8531 2.0625 55.9375 14.1469 55.9375 29V29.001C55.9503 35.6358 53.491 42.0375 49.0391 46.957L48.6602 47.375H54.125V50.5H43.75V40.125H46.875V44.748L47.3174 44.2188C50.8767 39.9524 52.8125 34.6318 52.8125 29C52.8125 15.87 42.1301 5.1875 29 5.1875C25.5538 5.1795 22.1493 5.92688 19.0234 7.37305L17.6797 4.55078C20.9988 3.01017 24.5965 2.16595 28.251 2.07129L29 2.0625Z" fill="white" stroke="white" stroke-width="0.5"/>
</svg>
