<svg width="30" height="34" viewBox="0 0 30 34" fill="none" xmlns="http://www.w3.org/2000/svg">
<path d="M9.93333 7.01667L12.5833 11.55C8.28333 11.9833 5 15.5667 5 19.8833C5 22.0935 5.87797 24.2131 7.44078 25.7759C9.00358 27.3387 11.1232 28.2167 13.3333 28.2167C16.75 28.2167 19.6833 26.1667 20.9667 23.2167H16.6667V19.8833H30V23.2167H26.25C25.5763 25.797 24.1489 28.118 22.15 29.8833H26.6667V33.2167H0V29.8833H4.51667C3.09746 28.6323 1.96071 27.0936 1.18197 25.3695C0.403227 23.6453 0.000313328 21.7752 0 19.8833C0 13.8333 4.1 8.55 9.93333 7.01667ZM15.4 0L16.6667 2.16667L18.1 1.33333L23.9333 11.4333L18.15 14.7667L12.3167 4.66667L13.7667 3.83333L12.5 1.66667L15.4 0Z" fill="#1E4538"/>
</svg>
