<svg width="37" height="37" viewBox="0 0 37 37" fill="none" xmlns="http://www.w3.org/2000/svg">
<path d="M8.33333 20H1.66667C0.666667 20 0 20.6667 0 21.6667V35C0 36 0.666667 36.6667 1.66667 36.6667H8.33333C9.33333 36.6667 10 36 10 35V21.6667C10 20.6667 9.33333 20 8.33333 20ZM35 13.3333H28.3333C27.3333 13.3333 26.6667 14 26.6667 15V35C26.6667 36 27.3333 36.6667 28.3333 36.6667H35C36 36.6667 36.6667 36 36.6667 35V15C36.6667 14 36 13.3333 35 13.3333ZM21.6667 0H15C14 0 13.3333 0.666667 13.3333 1.66667V35C13.3333 36 14 36.6667 15 36.6667H21.6667C22.6667 36.6667 23.3333 36 23.3333 35V1.66667C23.3333 0.666667 22.6667 0 21.6667 0Z" fill="#1E4538"/>
</svg>
