<svg width="60" height="54" viewBox="0 0 60 54" fill="none" xmlns="http://www.w3.org/2000/svg">
<path d="M0 53.4304V47.5137C0 47.5137 14.7917 41.597 29.5833 41.597C44.375 41.597 59.1667 47.5137 59.1667 47.5137V53.4304H0ZM27.5125 15.2679C23.9625 3.73036 5.91667 6.39286 5.91667 6.39286C5.91667 6.39286 6.50833 29.4679 23.3708 25.9179C22.1875 17.3387 17.75 14.972 17.75 14.972C26.0333 14.972 26.625 25.0304 26.625 25.0304V38.6387H32.5417V26.2137C32.5417 26.2137 32.5417 14.6762 41.4167 11.7179C41.4167 11.7179 35.5 20.5929 35.5 26.5095C56.2083 28.5804 56.2083 0.180358 56.2083 0.180358C56.2083 0.180358 29.8792 -2.77797 27.5125 15.2679Z" fill="#2D5A3D"/>
</svg>
